# xmcd CD database file
#
# Track frame offsets:
#	182
#	23652
#	44342
#	67247
#	85637
#	106490
#	126325
#	143825
#	161917
#	184892
#	206232
#	221527
#	239682
#	261715
#	284987
#
# Disc length: 4049 seconds
#
# Revision: 0
# Processed by: cddbd v1.4b42PL1 Copyright (c) Steve Scherf et al.
# Submitted via: CDex 1.40Beta8
#
DISCID=fc0fcf0f
DTITLE=Michael Hill Blues Mob - Suite: Larger Than Life
DYEAR=2001
DGENRE=Blues
TTITLE0=Heat On The Highway
TTITLE1=Tonight
TTITLE2=Haunted
TTITLE3=Terrible Twos
TTITLE4=Monticello Nights
TTITLE5=Under Cover
TTITLE6=Larger Than Life
TTITLE7=41 Shots
TTITLE8=Cosmic Stop
TTITLE9=Millie Jackson Love
TTITLE10=Hurt Nobody
TTITLE11=Big Top Shuffle
TTITLE12=Partner In Crime
TTITLE13=Bundle Of Joy
TTITLE14=Blessings
EXTD=YEAR: 2001 ID3G: 0
EXTT0=
EXTT1=
EXTT2=
EXTT3=
EXTT4=
EXTT5=
EXTT6=
EXTT7=
EXTT8=
EXTT9=
EXTT10=
EXTT11=
EXTT12=
EXTT13=
EXTT14=
PLAYORDER=
